<?xml version="1.0" encoding="utf-8"?><svg xmlns="http://www.w3.org/2000/svg" xmlns:xlink="http://www.w3.org/1999/xlink"><symbol id="logo" viewBox="0 0 180.07 35.56" xmlns="http://www.w3.org/2000/svg"><defs><style>.acls-1{fill:#e41e0a}</style></defs><title>logo ad red</title><g id="aСлой_2" data-name="Слой 2"><g id="aLayer_1" data-name="Layer 1"><path class="acls-1" d="M52.49 0h6.32v34.92h-6.32v-2.67a12.18 12.18 0 0 1-3.72 2.54 10.36 10.36 0 0 1-4 .77 11.2 11.2 0 0 1-8.44-3.78 13.13 13.13 0 0 1-3.56-9.41 13.52 13.52 0 0 1 3.44-9.57 11 11 0 0 1 8.37-3.72 10.77 10.77 0 0 1 4.26.85 11.64 11.64 0 0 1 3.68 2.57zm-6.65 14.91A6.4 6.4 0 0 0 41 17a7.53 7.53 0 0 0-2 5.3 7.52 7.52 0 0 0 2 5.37 6.41 6.41 0 0 0 4.86 2.11 6.5 6.5 0 0 0 4.94-2.08 7.56 7.56 0 0 0 2-5.43 7.37 7.37 0 0 0-2-5.32 6.55 6.55 0 0 0-5-2m28.35-5.23h6.33v2.59a14.84 14.84 0 0 1 3.89-2.52 9.28 9.28 0 0 1 3.57-.71 8.64 8.64 0 0 1 6.36 2.61c1.47 1.48 2.2 3.68 2.2 6.58v16.65h-6.25v-11a28.05 28.05 0 0 0-.41-6 4.16 4.16 0 0 0-1.41-2.25 3.94 3.94 0 0 0-2.43-.8 4.58 4.58 0 0 0-3.29 1.28 6.84 6.84 0 0 0-1.91 3.55 29.09 29.09 0 0 0-.27 5.11v10.11h-6.38zM119.05 0h6.32v34.92h-6.32v-2.67a12.25 12.25 0 0 1-3.71 2.54 10.36 10.36 0 0 1-4 .77 11.2 11.2 0 0 1-8.44-3.78 13.13 13.13 0 0 1-3.56-9.41 13.58 13.58 0 0 1 3.44-9.57 11 11 0 0 1 8.38-3.72 10.68 10.68 0 0 1 4.25.85 11.64 11.64 0 0 1 3.68 2.57zm-6.65 14.91a6.4 6.4 0 0 0-4.87 2.09 7.49 7.49 0 0 0-1.93 5.32 7.52 7.52 0 0 0 2 5.37 6.41 6.41 0 0 0 4.86 2.11 6.48 6.48 0 0 0 4.93-2.08 7.56 7.56 0 0 0 2-5.43 7.37 7.37 0 0 0-2-5.32 6.55 6.55 0 0 0-5-2m42.45 9.18h-20.3a6.71 6.71 0 0 0 2.35 4.27 7.39 7.39 0 0 0 4.87 1.58 8.43 8.43 0 0 0 6.09-2.48l5.32 2.5a12.46 12.46 0 0 1-4.76 4.18 15 15 0 0 1-6.6 1.35 13.07 13.07 0 0 1-9.66-3.73 12.78 12.78 0 0 1-3.73-9.37 13.12 13.12 0 0 1 3.72-9.57 12.47 12.47 0 0 1 9.32-3.81 13 13 0 0 1 9.68 3.81A13.79 13.79 0 0 1 154.87 23zm-6.32-5a6.38 6.38 0 0 0-2.47-3.43 7.19 7.19 0 0 0-4.28-1.31 7.58 7.58 0 0 0-4.64 1.48 8.31 8.31 0 0 0-2.32 3.26z"/><path class="acls-1" d="M154.46 9.72h7.34l4.98 6.87 4.95-6.87h7.22l-8.55 11.86 9.67 13.34h-7.34l-5.99-8.27-5.97 8.27h-7.22l9.57-13.26-8.66-11.94zM13.13.86h6.58l13.1 34.06h-6.74l-2.66-7H9.51l-2.77 7H0zm3.33 9l-4.57 11.72H21zM63.27 0v5.84h6.36L63.27 9.1v25.82h6.44V0h-6.44z"/></g></g></symbol><symbol viewBox="0 0 511.626 511.627" id="youtube-logo" xmlns="http://www.w3.org/2000/svg"><path d="M511.339 212.987c-.186-10.277-1-23.271-2.423-38.97-1.431-15.708-3.478-29.746-6.14-42.115-3.046-13.893-9.661-25.6-19.842-35.117-10.181-9.519-22.031-15.037-35.549-16.562-42.258-4.755-106.115-7.135-191.573-7.135-85.459 0-149.317 2.38-191.572 7.135-13.516 1.524-25.319 7.043-35.404 16.562-10.089 9.514-16.656 21.221-19.702 35.117-2.852 12.373-4.996 26.41-6.423 42.115-1.425 15.699-2.235 28.688-2.424 38.97C.094 223.265 0 237.539 0 255.813c0 18.272.094 32.55.288 42.826.189 10.284.999 23.271 2.424 38.969 1.427 15.707 3.474 29.745 6.139 42.116 3.046 13.897 9.659 25.602 19.842 35.115 10.185 9.517 22.036 15.036 35.548 16.56 42.255 4.76 106.109 7.139 191.572 7.139 85.466 0 149.315-2.379 191.573-7.139 13.518-1.523 25.316-7.043 35.405-16.56 10.089-9.514 16.652-21.225 19.698-35.115 2.854-12.371 4.996-26.409 6.427-42.116 1.423-15.697 2.231-28.691 2.423-38.969.191-10.276.287-24.554.287-42.826 0-18.274-.095-32.548-.287-42.826zm-154.456 58.244L210.706 362.59c-2.666 1.903-5.905 2.854-9.71 2.854-2.853 0-5.803-.764-8.848-2.286-6.28-3.422-9.419-8.754-9.419-15.985V164.454c0-7.229 3.14-12.561 9.419-15.986 6.473-3.431 12.657-3.239 18.558.571l146.178 91.36c5.708 3.23 8.562 8.372 8.562 15.415 0 7.04-2.855 12.184-8.563 15.417z"/></symbol></svg>